<svg xmlns="http://www.w3.org/2000/svg" xmlns:svg="http://www.w3.org/2000/svg" id="svg2" width="153.036" height="30.824" version="1.1"><metadata id="metadata7"/><g id="layer1" transform="translate(-292.00395,-690.79637)"><g id="g3268" transform="translate(250.00395,27.038662)" style="fill:#06c;fill-opacity:1"><path id="path3270" d="m 119.48246,674.45905 c 0.39118,-0.5134 0.41923,-0.4903 0.90518,-0.78271 0.55052,-0.33125 0.81352,-0.48319 1.25966,-0.7016 0.44613,-0.21841 0.71281,-0.39304 1.78048,-0.39304 l 6.996,0 c 0.70397,2e-5 1.40797,0.29336 2.112,0.88 l 1.056,0.88 c 0.70397,0.58669 1.05597,1.32002 1.056,2.2 l 0,18.04 -3.696,0 0,-17.116 c -3e-5,-0.43998 -0.0294,-0.71865 -0.088,-0.836 -0.0294,-0.14665 -0.17603,-0.32265 -0.44,-0.528 -0.26403,-0.20531 -0.46936,-0.32265 -0.616,-0.352 -0.14669,-0.0586 -0.48402,-0.088 -1.012,-0.088 l -4.84,0 c -0.52802,2e-5 -0.89469,0.0294 -1.1,0.088 -0.17602,0.0587 -0.52802,0.24935 -1.056,0.572 -0.67468,0.41069 -1.02668,0.79202 -1.056,1.144 l 0,17.116 -3.696,0 0,-17.116 c -1e-5,-0.43998 -0.0294,-0.71865 -0.088,-0.836 -0.0293,-0.14665 -0.17601,-0.32265 -0.44,-0.528 -0.26401,-0.20531 -0.46934,-0.32265 -0.616,-0.352 -0.14668,-0.0586 -0.48401,-0.088 -1.012,-0.088 l -4.444,0 c -0.52801,2e-5 -0.89467,0.0294 -1.1,0.088 -0.176,0.0587 -0.528,0.24935 -1.056,0.572 -0.528,0.32269 -0.836,0.55735 -0.924,0.704 -0.088,0.14669 -0.132,0.44002 -0.132,0.88 l 0,16.676 -3.69599,0 0,-17.97052 c 0.0209,-0.75554 0.40048,-1.25206 2.00543,-2.25629 1.60495,-1.00423 0.20494,-0.15352 1.45709,-0.89167 1.25215,-0.73815 1.43842,-0.88152 2.34217,-0.88152 l 7.1753,0 c 0.70399,2e-5 1.67439,0.2699 2.112,0.88" style="font-size:44px;font-style:normal;font-variant:normal;font-weight:400;font-stretch:normal;line-height:125%;letter-spacing:0;word-spacing:0;fill:#06c;fill-opacity:1;stroke:none;font-family:Electrolize;-inkscape-font-specification:Electrolize"/><path id="path3272" d="m 144.7011,694.5817 -3.696,0 0,-22 3.696,0 0,22 m 0.396,-28.864 0,0.352 c 0,0.55736 -0.0293,0.90936 -0.088,1.056 -0.0293,0.1467 -0.16134,0.3227 -0.396,0.528 -0.23467,0.2347 -0.77733,0.35203 -1.628,0.352 l -0.22,0 c -0.64533,3e-5 -1.04133,-0.0146 -1.188,-0.044 -0.14667,-0.0293 -0.32266,-0.13197 -0.528,-0.308 -0.20533,-0.2053 -0.33733,-0.3813 -0.396,-0.528 -0.0293,-0.14664 -0.044,-0.49864 -0.044,-1.056 l 0,-0.352 c 0,-0.5573 0.0147,-0.9093 0.044,-1.056 0.0587,-0.14663 0.20534,-0.32263 0.44,-0.528 0.176,-0.17597 0.33733,-0.27863 0.484,-0.308 0.14667,-0.0293 0.54267,-0.044 1.188,-0.044 l 0.176,0 c 0.88,3e-5 1.452,0.11737 1.716,0.352 0.20533,0.20537 0.32266,0.38137 0.352,0.528 0.0587,0.1467 0.088,0.4987 0.088,1.056" style="font-size:44px;font-style:normal;font-variant:normal;font-weight:400;font-stretch:normal;line-height:125%;letter-spacing:0;word-spacing:0;fill:#06c;fill-opacity:1;stroke:none;font-family:Electrolize;-inkscape-font-specification:Electrolize"/><path id="path3274" d="m 163.20243,675.6617 -6.292,0 c -0.52801,2e-5 -0.86534,0.0294 -1.012,0.088 -0.14667,0.0294 -0.352,0.14669 -0.616,0.352 -0.264,0.20535 -0.42534,0.38135 -0.484,0.528 -0.0293,0.11735 -0.044,0.39602 -0.044,0.836 l 0,12.232 c 0,0.44001 0.0147,0.73334 0.044,0.88 0.0587,0.11734 0.22,0.27867 0.484,0.484 0.264,0.20534 0.46933,0.33734 0.616,0.396 0.14666,0.0293 0.48399,0.044 1.012,0.044 l 6.248,0 c 0.52799,10e-6 0.87999,-0.0293 1.056,-0.088 0.20532,-0.0587 0.57199,-0.24933 1.1,-0.572 0.52798,-0.32266 0.83598,-0.55733 0.924,-0.704 0.088,-0.14666 0.13198,-0.43999 0.132,-0.88 l 0,-10.956 c -2e-5,-0.58665 -0.35202,-1.17331 -1.056,-1.76 -0.70401,-0.58665 -1.40801,-0.87998 -2.112,-0.88 m -7.92,18.92 c -0.704,0 -1.408,-0.29333 -2.112,-0.88 l -1.056,-0.88 c -0.704,-0.58666 -1.056,-1.31999 -1.056,-2.2 l 0,-14.08 c 0,-0.87998 0.352,-1.61331 1.056,-2.2 l 1.056,-0.88 c 0.704,-0.58664 1.408,-0.87998 2.112,-0.88 l 7.72211,-0.0109 c 1.4058,-0.0381 2.4586,0.72603 3.35108,1.62801 l 0.0108,-10.44105 3.68062,0 -0.0253,26.80578 c -0.001,1.52483 -0.44966,1.81481 -1.20438,2.34723 -0.75473,0.53242 -0.79375,0.62885 -1.3022,0.94751 -0.50845,0.31866 -1.16348,0.72347 -1.69147,0.72347" style="font-size:44px;font-style:normal;font-variant:normal;font-weight:400;font-stretch:normal;line-height:125%;letter-spacing:0;word-spacing:0;fill:#06c;fill-opacity:1;stroke:none;font-family:Electrolize;-inkscape-font-specification:Electrolize"/><path id="path3276" d="m 180.25174,672.5817 10.56,0 c 0.70399,2e-5 1.40799,0.29336 2.112,0.88 l 1.056,0.88 c 0.70398,0.58669 1.05598,1.32002 1.056,2.2 l 0,14.08 c -2e-5,0.88001 -0.35202,1.61334 -1.056,2.2 l -1.056,0.88 c -0.70401,0.58667 -1.40801,0.88 -2.112,0.88 l -10.56,0 c -0.704,0 -1.408,-0.29333 -2.112,-0.88 l -1.056,-0.88 c -0.704,-0.58666 -1.056,-1.31999 -1.056,-2.2 l 0,-14.08 c 0,-0.87998 0.352,-1.61331 1.056,-2.2 l 1.056,-0.88 c 0.704,-0.58664 1.408,-0.87998 2.112,-0.88 m 11.088,17.116 0,-12.232 c -1e-5,-0.43998 -0.0293,-0.71865 -0.088,-0.836 -0.0294,-0.14665 -0.17601,-0.32265 -0.44,-0.528 -0.26401,-0.20531 -0.46935,-0.32265 -0.616,-0.352 -0.14668,-0.0586 -0.48401,-0.088 -1.012,-0.088 l -7.304,0 c -0.528,2e-5 -0.86534,0.0294 -1.012,0.088 -0.14667,0.0294 -0.352,0.14669 -0.616,0.352 -0.264,0.20535 -0.42534,0.38135 -0.484,0.528 -0.0293,0.11735 -0.044,0.39602 -0.044,0.836 l 0,12.232 c 0,0.44001 0.0147,0.73334 0.044,0.88 0.0587,0.11734 0.22,0.27867 0.484,0.484 0.264,0.20534 0.46933,0.33734 0.616,0.396 0.14666,0.0293 0.484,0.044 1.012,0.044 l 7.304,0 c 0.52799,10e-6 0.86532,-0.0147 1.012,-0.044 0.14665,-0.0587 0.35199,-0.19066 0.616,-0.396 0.26399,-0.20533 0.41065,-0.36666 0.44,-0.484 0.0587,-0.14666 0.088,-0.43999 0.088,-0.88" style="font-size:44px;font-style:normal;font-variant:normal;font-weight:400;font-stretch:normal;line-height:125%;letter-spacing:0;word-spacing:0;fill:#06c;fill-opacity:1;stroke:none;font-family:Electrolize;-inkscape-font-specification:Electrolize"/><g id="g3280" transform="translate(1.6000073,0)" style="fill:#06c;fill-opacity:1"><path style="font-size:44px;font-style:normal;font-variant:normal;font-weight:400;font-stretch:normal;line-height:125%;letter-spacing:0;word-spacing:0;fill:#06c;fill-opacity:1;stroke:none;font-family:Electrolize;-inkscape-font-specification:Electrolize" id="path3282" d="m 68.71731,673.2417 c 0.528,-0.32264 0.88,-0.51331 1.056,-0.572 0.20533,-0.0586 0.572,-0.088 1.1,-0.088 l 4.61583,0.007 0,3.06957 -4.08783,0.003 c -0.52801,2e-5 -0.89467,0.0294 -1.1,0.088 -0.176,0.0587 -0.528,0.24935 -1.056,0.572 -0.528,0.32269 -0.836,0.55735 -0.924,0.704 -0.088,0.14669 -0.132,0.44002 -0.132,0.88 l 0,16.676 -3.696,0 c 0,0 -0.004,-17.65814 -0.004,-18.05261 -1.1e-4,-0.39447 0.54248,-0.85589 0.76714,-1.02445 0.22466,-0.16856 3.46086,-2.26294 3.46086,-2.26294 z"/><path style="font-size:44px;font-style:normal;font-variant:normal;font-weight:400;font-stretch:normal;line-height:125%;letter-spacing:0;word-spacing:0;fill:#06c;fill-opacity:1;stroke:none;font-family:Electrolize;-inkscape-font-specification:Electrolize" id="path3284" d="m 95.97445,690.56687 c 0,0.73728 -0.4675,1.38297 -1.06888,1.88556 -0.60138,0.50259 -0.77407,0.61952 -1.23569,0.99031 -0.46162,0.37079 -1.4876,1.13896 -1.91609,1.13896 -0.71151,0 -9.67933,-0.0408 -9.67933,-0.0408 -0.704,-0.003 -1.40801,-0.29333 -2.112,-0.88 l -1.056,-0.88 c -0.704,-0.58666 -1.056,-1.31999 -1.056,-2.2 l 0,-5.28 c 0,-0.87999 0.352,-1.61332 1.056,-2.2 l 1.056,-0.88 c 0.70399,-0.58665 1.40799,-0.87998 2.112,-0.88 3.061642,-0.0275 5.933635,-0.0275 8.891145,-0.0275 0.44844,-2e-5 0.927247,0.26121 1.304484,0.64258 0,-1.2188 0.01237,-3.65282 0.01237,-4.53106 -2e-5,-0.43998 -0.0293,-0.71865 -0.088,-0.836 -0.0294,-0.14665 -0.17602,-0.32265 -0.44,-0.528 -0.26402,-0.20531 -0.46935,-0.32265 -0.616,-0.352 -0.14668,-0.0586 -0.50061,-0.033 -1.02859,-0.033 l -8.58286,0 0,-3.06957 10.22678,0 c 0.70398,2e-5 1.40865,0.22767 2.11267,0.81431 l 1.056,0.88 c 0.70398,0.58669 1.05598,1.32002 1.056,2.2 m -14.43201,9.724 0,3.432 c -10e-6,0.44001 0.0147,0.73334 0.044,0.88 0.0587,0.11734 0.21999,0.27867 0.484,0.484 0.26399,0.20534 0.46933,0.33734 0.616,0.396 0.14666,0.0293 0.48399,0.044 1.012,0.044 l 5.368,0 c 0.52798,1e-5 0.87998,-0.0293 1.056,-0.088 0.20532,-0.0587 0.57198,-0.24933 1.1,-0.572 0.52798,-0.32266 0.83598,-0.55733 0.924,-0.704 0.088,-0.14666 0.13198,-0.43999 0.132,-0.88 l 0,-2.992 c -2e-5,-0.43999 -0.0293,-0.71866 -0.088,-0.836 -0.0294,-0.14665 -0.17602,-0.32265 -0.44,-0.528 -0.26402,-0.20532 -0.46935,-0.32265 -0.616,-0.352 -0.14668,-0.0587 -0.48402,-0.088 -1.012,-0.088 l -6.424,0 c -0.52801,10e-6 -0.86534,0.0294 -1.012,0.088 -0.14667,0.0293 -0.35201,0.14668 -0.616,0.352 -0.26401,0.20535 -0.42534,0.38135 -0.484,0.528 -0.0293,0.11734 -0.044,0.39601 -0.044,0.836"/><path id="path3049" d="m 58.523983,690.56687 c 0,0.73728 -0.4675,1.38297 -1.06888,1.88556 -0.60138,0.50259 -0.77407,0.61952 -1.23569,0.99031 -0.46162,0.37079 -1.4876,1.13896 -1.91609,1.13896 -0.71151,0 -9.67933,-0.0408 -9.67933,-0.0408 -0.704,-0.003 -1.40801,-0.29333 -2.112,-0.88 l -1.056,-0.88 c -0.704,-0.58666 -1.056,-1.31999 -1.056,-2.2 v -5.28 c 0,-0.87999 0.352,-1.61332 1.056,-2.2 l 1.056,-0.88 c 0.70399,-0.58665 1.40799,-0.87998 2.112,-0.88 3.061642,-0.0275 5.933635,-0.0275 8.891145,-0.0275 0.44844,-2e-5 0.927247,0.26121 1.304484,0.64258 0,-1.2188 0.01237,-3.65282 0.01237,-4.53106 -2e-5,-0.43998 -0.0293,-0.71865 -0.088,-0.836 -0.0294,-0.14665 -0.17602,-0.32265 -0.44,-0.528 -0.26402,-0.20531 -0.46935,-0.32265 -0.616,-0.352 -0.14668,-0.0586 -0.50061,-0.033 -1.02859,-0.033 h -8.58286 v -3.06957 h 10.22678 c 0.70398,2e-5 1.40865,0.22767 2.11267,0.81431 l 1.056,0.88 c 0.70398,0.58669 1.05598,1.32002 1.056,2.2 z m -14.428001,-4.34221 v 3.432 c -10e-6,0.44001 0.0147,0.73334 0.044,0.88 0.0587,0.11734 0.21999,0.27867 0.484,0.484 0.26399,0.20534 0.46933,0.33734 0.616,0.396 0.14666,0.0293 0.48399,0.044 1.012,0.044 h 5.368 c 0.52798,1e-5 0.87998,-0.0293 1.056,-0.088 0.20532,-0.0587 0.57198,-0.24933 1.1,-0.572 0.52798,-0.32266 0.83598,-0.55733 0.924,-0.704 0.088,-0.14666 0.13198,-0.43999 0.132,-0.88 v -2.992 c -2e-5,-0.43999 -0.0293,-0.71866 -0.088,-0.836 -0.0294,-0.14665 -0.17602,-0.32265 -0.44,-0.528 -0.26402,-0.20532 -0.46935,-0.32265 -0.616,-0.352 -0.14668,-0.0587 -0.48402,-0.088 -1.012,-0.088 h -6.424 c -0.52801,10e-6 -0.86534,0.0294 -1.012,0.088 -0.14667,0.0293 -0.35201,0.14668 -0.616,0.352 -0.26401,0.20535 -0.42534,0.38135 -0.484,0.528 -0.0293,0.11734 -0.044,0.39601 -0.044,0.836" style="font-style:normal;font-variant:normal;font-weight:400;font-stretch:normal;font-size:44px;line-height:125%;font-family:Electrolize;-inkscape-font-specification:Electrolize;letter-spacing:0;word-spacing:0;fill:#06c;fill-opacity:1;stroke:none"/></g></g></g></svg>